HIERARCHY
ROOT Pelvis
{
	OFFSET 0.000000 0.000000 0.000000
	CHANNELS 6 Xposition Yposition Zposition Xrotation Yrotation Zrotation
	JOINT LeftUpLeg_virtual
	{
		OFFSET 0.000000 0.000000 0.000000
		CHANNELS 3 Xrotation Yrotation Zrotation
		JOINT LeftUpLeg
		{
			OFFSET 18.735201 -5.666702 -4.541200
			CHANNELS 3 Xrotation Yrotation Zrotation
			JOINT LeftLeg
			{
				OFFSET -0.021200 -31.938179 0.493100
				CHANNELS 3 Xrotation Yrotation Zrotation
				JOINT LeftFoot
				{
					OFFSET 0.021200 -31.938179 -4.336299
					CHANNELS 3 Xrotation Yrotation Zrotation
					JOINT LeftToeBase
					{
						OFFSET 0.943001 -26.722000 15.023500
						CHANNELS 3 Xrotation Yrotation Zrotation
						End Site
						{
							OFFSET 0 0 0
						}
					}
				}
			}
		}
	}
	JOINT RightUpLeg_virtual
	{
		OFFSET 0.000000 0.000000 0.000000
		CHANNELS 3 Xrotation Yrotation Zrotation
		JOINT RightUpLeg
		{
			OFFSET -18.735201 -5.666702 -4.541200
			CHANNELS 3 Xrotation Yrotation Zrotation
			JOINT RightLeg
			{
				OFFSET 0.018946 -31.938133 0.493100
				CHANNELS 3 Xrotation Yrotation Zrotation
				JOINT RightFoot
				{
					OFFSET -0.018946 -31.938126 -4.336299
					CHANNELS 3 Xrotation Yrotation Zrotation
					JOINT RightToeBase
					{
						OFFSET -0.943001 -26.722004 15.023500
						CHANNELS 3 Xrotation Yrotation Zrotation
						End Site
						{
							OFFSET 0 0 0
						}
					}
				}
			}
		}
	}
	JOINT Hips_virtual
	{
		OFFSET 0.000000 0.000000 0.000000
		CHANNELS 3 Xrotation Yrotation Zrotation
		JOINT Hips
		{
			OFFSET -0.000000 -0.000000 -0.000000
			CHANNELS 3 Xrotation Yrotation Zrotation
			JOINT Spine
			{
				OFFSET 0.000000 10.199997 -0.299500
				CHANNELS 3 Xrotation Yrotation Zrotation
				JOINT Spine1
				{
					OFFSET 0.000000 11.900002 -1.516600
					CHANNELS 3 Xrotation Yrotation Zrotation
					JOINT Spine2
					{
						OFFSET 0.000000 13.600006 -2.842500
						CHANNELS 3 Xrotation Yrotation Zrotation
						JOINT Neck_virtual
						{
							OFFSET 0.000000 0.000000 0.000000
							CHANNELS 3 Xrotation Yrotation Zrotation
							JOINT Neck
							{
								OFFSET 0.000000 9.624100 -2.890100
								CHANNELS 3 Xrotation Yrotation Zrotation
								JOINT Head
								{
									OFFSET 0.000000 14.068802 -1.351900
									CHANNELS 3 Xrotation Yrotation Zrotation
									End Site
									{
										OFFSET 0 0 0
									}
								}
							}
						}
						JOINT LeftShoulder_virtual
						{
							OFFSET 0.000000 0.000000 0.000000
							CHANNELS 3 Xrotation Yrotation Zrotation
							JOINT LeftShoulder
							{
								OFFSET 15.263000 10.923401 -0.547700
								CHANNELS 3 Xrotation Yrotation Zrotation
								JOINT LeftArm
								{
									OFFSET 25.438599 -2.830597 -13.032500
									CHANNELS 3 Xrotation Yrotation Zrotation
									JOINT LeftForeArm
									{
										OFFSET 29.960503 0.000000 0.000000
										CHANNELS 3 Xrotation Yrotation Zrotation
										JOINT LeftHand
										{
											OFFSET 27.849251 0.000000 0.000000
											CHANNELS 3 Xrotation Yrotation Zrotation
											End Site
											{
												OFFSET 0 0 0
											}
										}
									}
								}
							}
						}
						JOINT RightShoulder_virtual
						{
							OFFSET 0.000000 0.000000 0.000000
							CHANNELS 3 Xrotation Yrotation Zrotation
							JOINT RightShoulder
							{
								OFFSET -15.263000 10.923401 -0.547700
								CHANNELS 3 Xrotation Yrotation Zrotation
								JOINT RightArm
								{
									OFFSET -25.438599 -2.830597 -13.032500
									CHANNELS 3 Xrotation Yrotation Zrotation
									JOINT RightForeArm
									{
										OFFSET -29.960503 0.000000 0.000000
										CHANNELS 3 Xrotation Yrotation Zrotation
										JOINT RightHand
										{
											OFFSET -27.849251 0.000000 0.000000
											CHANNELS 3 Xrotation Yrotation Zrotation
											End Site
											{
												OFFSET 0 0 0
											}
										}
									}
								}
							}
						}
					}
				}
			}
		}
	}
}
MOTION
Frames: 10
Frame Time: 0.03333333
0.255526 88.378044 4.543806 0.000000 0.000000 0.000000 5.443499 2.847077 -2.777247 -56.612412 9.595160 -1.976661 100.002965 15.295824 4.145818 1.222855 -0.966805 11.397373 0.000000 0.000000 0.000000 5.443499 2.847077 -2.777247 -19.758639 -5.735632 4.478583 47.683019 -0.316767 -1.605433 -24.509174 0.688490 -1.860318 0.000000 0.000000 0.000000 5.443499 2.847077 -2.777247 0.000000 0.000000 0.000000 4.932292 1.387325 1.143419 9.857122 2.800250 1.722122 0.000000 0.000000 0.000000 9.857128 2.800249 1.722122 -1.496887 -0.633124 -0.053940 0.000000 0.000000 0.000000 9.857128 2.800249 1.722122 1.084062 -1.226536 -9.108710 21.951226 16.129891 -69.744605 -174.798065 -76.010129 173.876672 0.000000 0.000000 0.000000 9.857128 2.800249 1.722122 0.776463 6.054086 9.529804 5.506730 -10.523599 55.529295 -70.896168 86.710556 75.613302 0.000000 0.000000 0.000000 
0.884586 88.798515 14.975395 0.000000 0.000000 0.000000 3.090593 0.461089 -0.069592 -65.066882 7.025775 -2.231731 93.690634 15.317990 4.215510 11.140826 -0.067329 13.219987 0.000000 0.000000 0.000000 3.090593 0.461089 -0.069592 -14.168007 -5.037667 1.453694 51.172406 0.824865 -3.389920 -19.452801 0.595209 -0.427674 0.000000 0.000000 0.000000 3.090593 0.461089 -0.069592 0.000000 0.000000 0.000000 4.792314 1.686191 0.945455 9.626595 3.123980 0.274439 0.000000 0.000000 0.000000 9.626595 3.123980 0.274438 -0.483588 -0.670304 -0.297307 0.000000 0.000000 0.000000 9.626595 3.123980 0.274438 1.017755 -3.352018 -7.689895 20.366321 21.388594 -69.829470 -176.853815 -81.480134 172.733872 0.000000 0.000000 0.000000 9.626595 3.123980 0.274438 0.471251 6.581697 7.077384 2.677230 -8.531779 52.506325 -124.821161 83.187387 129.906237 0.000000 0.000000 0.000000 
1.512585 88.681122 25.602341 0.000000 0.000000 0.000000 0.125849 -1.733963 3.008453 -69.148070 4.613327 -3.746603 86.310560 15.984584 4.285738 16.950422 0.496232 13.647077 0.000000 0.000000 0.000000 0.125849 -1.733963 3.008453 -11.330033 -3.599123 -3.158031 53.405406 2.128219 -4.205108 -0.124087 0.717913 1.688114 0.000000 0.000000 0.000000 0.125849 -1.733963 3.008453 0.000000 0.000000 0.000000 4.711547 1.812208 0.377608 9.488553 3.163841 -0.986325 0.000000 0.000000 0.000000 9.488547 3.163836 -0.986325 0.532491 -0.672809 -0.527621 0.000000 0.000000 0.000000 9.488547 3.163836 -0.986325 0.950474 -5.646697 -7.066024 19.644681 26.553708 -68.303388 135.055912 -88.006687 123.489684 0.000000 0.000000 0.000000 9.488547 3.163836 -0.986325 0.215430 7.052324 4.417729 -0.696332 -7.601966 49.506604 -136.724186 80.118508 141.096655 0.000000 0.000000 0.000000 
1.653683 87.372993 35.157162 0.000000 0.000000 0.000000 -3.228330 -4.318058 6.093834 -71.565015 2.506890 -5.313141 79.551500 18.155338 4.799311 18.512555 0.558881 13.204349 0.000000 0.000000 0.000000 -3.228330 -4.318058 6.093834 -11.479093 0.389771 -7.214937 54.064943 2.868454 -4.486167 28.407833 0.658692 -0.339677 0.000000 0.000000 0.000000 -3.228330 -4.318058 6.093834 0.000000 0.000000 0.000000 4.897409 1.805412 -0.859795 9.838374 3.169747 -2.175855 0.000000 0.000000 0.000000 9.838368 3.169749 -2.175856 1.482048 -0.657509 -0.739145 0.000000 0.000000 0.000000 9.838368 3.169749 -2.175856 0.873605 -7.727234 -6.705416 19.528653 31.328220 -66.134058 48.333294 -81.733308 34.644010 0.000000 0.000000 0.000000 9.838368 3.169749 -2.175856 -0.010819 7.405822 1.517426 -3.959894 -7.479181 46.796669 -143.758584 76.454884 146.945127 0.000000 0.000000 0.000000 
1.164320 84.417641 43.943443 0.000000 0.000000 0.000000 -6.460882 -7.958718 9.069152 -72.634595 0.923300 -5.861640 73.975662 21.672303 5.620689 15.874968 0.254634 12.360205 0.000000 0.000000 0.000000 -6.460882 -7.958718 9.069152 -9.111885 5.765099 -10.098623 53.442259 5.604124 -3.637903 54.612868 -0.598858 -2.314990 0.000000 0.000000 0.000000 -6.460882 -7.958718 9.069152 0.000000 0.000000 0.000000 5.259292 1.849606 -2.685663 10.507888 3.279739 -3.461314 0.000000 0.000000 0.000000 10.507894 3.279739 -3.461315 2.302380 -0.611346 -0.925483 0.000000 0.000000 0.000000 10.507894 3.279739 -3.461315 0.774289 -9.387641 -6.438879 20.205212 35.514600 -63.760116 44.363452 -72.657374 27.758512 0.000000 0.000000 0.000000 10.507894 3.279739 -3.461315 -0.199671 7.579318 -1.593902 -6.612556 -8.410415 44.561998 -147.787658 71.668349 149.583288 0.000000 0.000000 0.000000 
0.966572 81.709396 52.963081 0.000000 0.000000 0.000000 -8.957169 -12.547696 11.008770 -70.112452 -0.313960 -5.656996 66.208090 25.490384 6.476045 11.833100 -0.058372 12.850764 0.000000 0.000000 0.000000 -8.957169 -12.547696 11.008770 -0.168102 7.537498 -11.627437 49.051208 8.691332 -1.171206 68.897689 -0.227646 -1.023802 0.000000 0.000000 0.000000 -8.957169 -12.547696 11.008770 -0.000001 0.000001 0.000000 5.587910 2.135431 -3.879480 11.141808 3.440271 -4.764979 0.000000 0.000000 0.000000 11.141812 3.440270 -4.764980 2.946875 -0.522795 -1.092717 0.000000 0.000000 0.000000 11.141812 3.440270 -4.764980 0.652085 -10.476706 -6.079464 21.852031 38.946104 -61.843600 41.441363 -63.479724 21.590742 0.000000 0.000000 0.000000 11.141812 3.440270 -4.764980 -0.336790 7.561603 -4.699325 -7.991916 -10.475027 42.952970 -150.038465 65.600005 150.664875 0.000000 0.000000 0.000000 
1.029099 78.400452 62.889202 0.000000 0.000000 0.000000 -10.546624 -16.905936 12.602892 -66.993719 -1.652146 -5.691795 58.067181 27.835973 7.440083 9.348389 -0.212886 13.979468 0.000000 0.000000 0.000000 -10.546624 -16.905936 12.602892 -1.521433 9.029681 -11.153066 53.379001 11.202537 1.907982 72.994286 4.377873 5.562071 0.000000 0.000000 0.000000 -10.546624 -16.905936 12.602892 0.000000 -0.000001 0.000001 5.823313 2.239697 -4.837181 11.598091 3.450191 -5.915489 0.000000 0.000000 0.000000 11.598088 3.450194 -5.915491 3.398033 -0.385127 -1.260388 0.000000 0.000000 0.000000 11.598088 3.450194 -5.915491 0.522786 -10.917882 -5.526653 24.556571 41.465597 -61.039331 37.414444 -54.868614 14.591043 0.000000 0.000000 0.000000 11.598088 3.450194 -5.915491 -0.402399 7.421403 -7.423812 -7.388204 -13.516203 42.105384 -151.539044 58.470920 151.678434 0.000000 0.000000 0.000000 
1.062119 74.873566 73.198822 0.000000 0.000000 0.000000 -11.490093 -20.381606 13.760634 -63.835317 -3.950920 -5.890773 49.184319 28.021357 8.910236 9.055777 -0.161329 14.840666 0.000000 0.000000 0.000000 -11.490093 -20.381606 13.760634 -5.424161 9.584124 -11.506198 60.646506 14.028917 4.478795 71.389246 7.013817 8.857019 0.000000 0.000000 0.000000 -11.490093 -20.381606 13.760634 0.000001 0.000001 0.000001 5.975325 2.121886 -5.380517 11.907409 3.146129 -6.800600 0.000000 0.000000 0.000000 11.907407 3.146131 -6.800602 3.667890 -0.197907 -1.455775 0.000000 0.000000 0.000000 11.907407 3.146131 -6.800602 0.414819 -10.688571 -4.861059 28.190062 42.898591 -61.706306 33.118819 -47.450765 8.102799 0.000000 0.000000 0.000000 11.907407 3.146131 -6.800602 -0.375879 7.299888 -9.353445 -4.225925 -17.137617 42.191605 -152.536962 50.947013 153.206074 0.000000 0.000000 0.000000 
1.333538 70.617508 82.550110 0.000000 0.000000 0.000000 -12.060804 -23.287564 14.852438 -61.798910 -6.554116 -6.197104 41.440202 26.182781 10.792216 10.288381 0.044525 14.963182 0.000000 0.000000 0.000000 -12.060804 -23.287564 14.852438 -11.574959 8.723688 -11.382611 69.519161 17.121816 6.299602 69.002737 8.832639 11.411919 0.000000 0.000000 0.000000 -12.060804 -23.287564 14.852438 0.000000 0.000000 0.000000 6.075791 1.836999 -5.777266 12.111664 2.599642 -7.393910 0.000000 0.000000 0.000000 12.111659 2.599639 -7.393914 3.785974 0.033794 -1.703065 0.000000 0.000000 0.000000 12.111659 2.599639 -7.393914 0.359107 -9.792225 -4.379270 32.308752 43.073017 -63.696104 29.496770 -41.701901 3.262010 0.000000 0.000000 0.000000 12.111659 2.599639 -7.393914 -0.246781 7.358129 -10.189526 1.690242 -20.768319 43.430444 -152.511513 44.129958 154.799134 0.000000 0.000000 0.000000 
1.782093 65.875496 92.124763 0.000000 0.000000 0.000000 -12.299132 -26.567742 16.095858 -60.470260 -8.688642 -6.165972 35.420726 22.186953 12.386273 13.489344 0.461930 14.895480 0.000000 0.000000 0.000000 -12.299132 -26.567742 16.095858 -17.847197 8.550897 -11.620275 78.184554 20.244476 8.907780 65.970174 9.809966 13.279099 0.000000 0.000000 0.000000 -12.299132 -26.567742 16.095858 0.000000 0.000001 0.000000 6.156774 1.554136 -6.012972 12.279729 2.084006 -7.840959 0.000000 0.000000 0.000000 12.279728 2.084007 -7.840954 3.782992 0.300863 -2.012487 0.000000 0.000000 0.000000 12.279728 2.084007 -7.840954 0.380955 -8.254284 -4.531598 36.179850 41.896339 -66.345712 27.156405 -37.780433 0.470499 0.000000 0.000000 0.000000 12.279728 2.084007 -7.840954 -0.025357 7.702421 -9.861690 9.917768 -23.782019 45.990884 -151.113523 39.370488 155.834290 0.000000 0.000000 0.000000 
